<svg xmlns="http://www.w3.org/2000/svg" width="206.333" height="366.978" viewBox="0 0 206.333 366.978">
  <g id="Group_165" data-name="Group 165" transform="translate(-531 -531)">
    <path id="_630e07632e548992f6f18192_header_block1" data-name="630e07632e548992f6f18192_header_block1" d="M206.333,117.775V44.727c0-34.967-38.254-56.283-67.9-38.081L29.647,73.468A62.516,62.516,0,0,0,0,126.637v73.288c0,34.968,38.254,56.283,67.9,38.081l108.785-66.821A62.678,62.678,0,0,0,206.333,117.775Z" transform="translate(531 531)" fill="#cbffe0"/>
    <path id="_630e07632e548992f6f18192_header_block1-2" data-name="630e07632e548992f6f18192_header_block1" d="M206.333,126.877v73.048c0,34.967-38.254,56.283-67.9,38.081L29.647,171.184A62.516,62.516,0,0,1,0,118.015V44.727C0,9.76,38.254-11.556,67.9,6.646L176.686,73.468A62.678,62.678,0,0,1,206.333,126.877Z" transform="translate(531 653.326)" fill="#cbffe0" opacity="0.51"/>
  </g>
</svg>
