<svg xmlns="http://www.w3.org/2000/svg" width="210.666" height="179.438" viewBox="0 0 210.666 179.438">
  <g id="Group_167" data-name="Group 167" transform="translate(-526.667 -771.562)">
    <path id="_630e07632e548992f6f18192_header_block1" data-name="630e07632e548992f6f18192_header_block1" d="M0,86.381V32.8C0,7.158,28.057-8.476,49.8,4.875l79.787,49.009a45.852,45.852,0,0,1,21.744,39v53.752c0,25.647-28.057,41.28-49.8,27.93L21.744,125.554A45.971,45.971,0,0,1,0,86.381Z" transform="translate(586 771.562)" fill="#e5d2f3" opacity="0.3"/>
    <path id="_630e07632e548992f6f18192_header_block1-2" data-name="630e07632e548992f6f18192_header_block1" d="M0,86.381V32.8C0,7.158,28.057-8.476,49.8,4.875l79.787,49.009a45.852,45.852,0,0,1,21.744,39v53.752c0,25.647-28.057,41.28-49.8,27.93L21.744,125.554A45.971,45.971,0,0,1,0,86.381Z" transform="translate(526.667 771.562)" fill="#e5d2f3" opacity="0.3"/>
  </g>
</svg>
