<svg xmlns="http://www.w3.org/2000/svg" width="579.565" height="496.015" viewBox="0 0 579.565 496.015">
  <g id="Group_160" data-name="Group 160" transform="translate(-877 -2576.992)">
    <path id="Path_189" data-name="Path 189" d="M387.565,249.782v-148.1c0-70.894-78.343-114.11-139.059-77.206L25.716,159.951C-11.987,183.258-35,223.56-35,267.748V416.334c0,70.894,78.343,114.11,139.059,77.206l222.79-135.476C365.041,334.271,387.565,293.969,387.565,249.782Z" transform="translate(1069 2565.992)" fill="#e4f5ee" opacity="0.03"/>
    <path id="Path_190" data-name="Path 190" d="M-35,160.18V67.654c0-44.291,48.945-71.291,86.878-48.235l139.189,84.639A79.012,79.012,0,0,1,229,171.405v92.83c0,44.291-48.946,71.291-86.878,48.235L2.933,227.831C-20.928,212.966-35,187.787-35,160.18Z" transform="translate(912 2658.556)" fill="#247656" opacity="0.23"/>
  </g>
</svg>
